<mxfile host="app.diagrams.net" modified="2023-11-03T12:27:15.720Z" agent="Mozilla/5.0 (Windows NT 10.0; Win64; x64) AppleWebKit/537.36 (KHTML, like Gecko) Chrome/118.0.0.0 Safari/537.36" etag="Iv4Uxmz4ANQ_UBfaiseE" version="22.0.8" type="github">
  <diagram id="C5RBs43oDa-KdzZeNtuy" name="Page-1">
    <mxGraphModel dx="662" dy="617" grid="1" gridSize="10" guides="1" tooltips="1" connect="1" arrows="1" fold="1" page="1" pageScale="1" pageWidth="827" pageHeight="1169" math="0" shadow="0">
      <root>
        <mxCell id="WIyWlLk6GJQsqaUBKTNV-0" />
        <mxCell id="WIyWlLk6GJQsqaUBKTNV-1" parent="WIyWlLk6GJQsqaUBKTNV-0" />
        <mxCell id="2ceo6vDL-QDBx9WR0tVc-16" style="edgeStyle=orthogonalEdgeStyle;rounded=0;orthogonalLoop=1;jettySize=auto;html=1;entryX=0.5;entryY=0;entryDx=0;entryDy=0;" edge="1" parent="WIyWlLk6GJQsqaUBKTNV-1" source="2ceo6vDL-QDBx9WR0tVc-1" target="2ceo6vDL-QDBx9WR0tVc-15">
          <mxGeometry relative="1" as="geometry" />
        </mxCell>
        <mxCell id="2ceo6vDL-QDBx9WR0tVc-1" value="trabajador" style="rounded=0;whiteSpace=wrap;html=1;" vertex="1" parent="WIyWlLk6GJQsqaUBKTNV-1">
          <mxGeometry x="490" y="80" width="120" height="60" as="geometry" />
        </mxCell>
        <mxCell id="2ceo6vDL-QDBx9WR0tVc-2" value="cliente" style="rounded=0;whiteSpace=wrap;html=1;" vertex="1" parent="WIyWlLk6GJQsqaUBKTNV-1">
          <mxGeometry x="330" y="150" width="120" height="60" as="geometry" />
        </mxCell>
        <mxCell id="2ceo6vDL-QDBx9WR0tVc-11" style="edgeStyle=orthogonalEdgeStyle;rounded=0;orthogonalLoop=1;jettySize=auto;html=1;entryX=0;entryY=0.5;entryDx=0;entryDy=0;" edge="1" parent="WIyWlLk6GJQsqaUBKTNV-1" source="2ceo6vDL-QDBx9WR0tVc-4" target="2ceo6vDL-QDBx9WR0tVc-10">
          <mxGeometry relative="1" as="geometry" />
        </mxCell>
        <mxCell id="2ceo6vDL-QDBx9WR0tVc-4" value="producto" style="rounded=0;whiteSpace=wrap;html=1;" vertex="1" parent="WIyWlLk6GJQsqaUBKTNV-1">
          <mxGeometry x="130" y="270" width="110" height="60" as="geometry" />
        </mxCell>
        <mxCell id="2ceo6vDL-QDBx9WR0tVc-5" value="venta" style="rounded=0;whiteSpace=wrap;html=1;" vertex="1" parent="WIyWlLk6GJQsqaUBKTNV-1">
          <mxGeometry x="490" y="280" width="120" height="60" as="geometry" />
        </mxCell>
        <mxCell id="2ceo6vDL-QDBx9WR0tVc-6" value="platarforma" style="rounded=0;whiteSpace=wrap;html=1;" vertex="1" parent="WIyWlLk6GJQsqaUBKTNV-1">
          <mxGeometry x="140" y="510" width="120" height="60" as="geometry" />
        </mxCell>
        <mxCell id="2ceo6vDL-QDBx9WR0tVc-8" value="marca" style="rounded=0;whiteSpace=wrap;html=1;" vertex="1" parent="WIyWlLk6GJQsqaUBKTNV-1">
          <mxGeometry x="520" y="380" width="120" height="60" as="geometry" />
        </mxCell>
        <mxCell id="2ceo6vDL-QDBx9WR0tVc-12" style="edgeStyle=orthogonalEdgeStyle;rounded=0;orthogonalLoop=1;jettySize=auto;html=1;entryX=0;entryY=0.5;entryDx=0;entryDy=0;" edge="1" parent="WIyWlLk6GJQsqaUBKTNV-1" source="2ceo6vDL-QDBx9WR0tVc-10" target="2ceo6vDL-QDBx9WR0tVc-5">
          <mxGeometry relative="1" as="geometry" />
        </mxCell>
        <mxCell id="2ceo6vDL-QDBx9WR0tVc-13" style="edgeStyle=orthogonalEdgeStyle;rounded=0;orthogonalLoop=1;jettySize=auto;html=1;entryX=0.5;entryY=1;entryDx=0;entryDy=0;" edge="1" parent="WIyWlLk6GJQsqaUBKTNV-1" source="2ceo6vDL-QDBx9WR0tVc-10" target="2ceo6vDL-QDBx9WR0tVc-2">
          <mxGeometry relative="1" as="geometry" />
        </mxCell>
        <mxCell id="2ceo6vDL-QDBx9WR0tVc-10" value="compra" style="rhombus;whiteSpace=wrap;html=1;" vertex="1" parent="WIyWlLk6GJQsqaUBKTNV-1">
          <mxGeometry x="350" y="270" width="80" height="80" as="geometry" />
        </mxCell>
        <mxCell id="2ceo6vDL-QDBx9WR0tVc-17" style="edgeStyle=orthogonalEdgeStyle;rounded=0;orthogonalLoop=1;jettySize=auto;html=1;" edge="1" parent="WIyWlLk6GJQsqaUBKTNV-1" source="2ceo6vDL-QDBx9WR0tVc-15" target="2ceo6vDL-QDBx9WR0tVc-5">
          <mxGeometry relative="1" as="geometry" />
        </mxCell>
        <mxCell id="2ceo6vDL-QDBx9WR0tVc-15" value="realiza" style="rhombus;whiteSpace=wrap;html=1;" vertex="1" parent="WIyWlLk6GJQsqaUBKTNV-1">
          <mxGeometry x="510" y="170" width="80" height="80" as="geometry" />
        </mxCell>
        <mxCell id="2ceo6vDL-QDBx9WR0tVc-19" style="edgeStyle=orthogonalEdgeStyle;rounded=0;orthogonalLoop=1;jettySize=auto;html=1;entryX=0.5;entryY=1;entryDx=0;entryDy=0;" edge="1" parent="WIyWlLk6GJQsqaUBKTNV-1" source="2ceo6vDL-QDBx9WR0tVc-18" target="2ceo6vDL-QDBx9WR0tVc-4">
          <mxGeometry relative="1" as="geometry" />
        </mxCell>
        <mxCell id="2ceo6vDL-QDBx9WR0tVc-20" style="edgeStyle=orthogonalEdgeStyle;rounded=0;orthogonalLoop=1;jettySize=auto;html=1;" edge="1" parent="WIyWlLk6GJQsqaUBKTNV-1" source="2ceo6vDL-QDBx9WR0tVc-18" target="2ceo6vDL-QDBx9WR0tVc-6">
          <mxGeometry relative="1" as="geometry" />
        </mxCell>
        <mxCell id="2ceo6vDL-QDBx9WR0tVc-18" value="desarrollado" style="rhombus;whiteSpace=wrap;html=1;" vertex="1" parent="WIyWlLk6GJQsqaUBKTNV-1">
          <mxGeometry x="130" y="390" width="80" height="80" as="geometry" />
        </mxCell>
        <mxCell id="2ceo6vDL-QDBx9WR0tVc-22" value="" style="edgeStyle=orthogonalEdgeStyle;rounded=0;orthogonalLoop=1;jettySize=auto;html=1;" edge="1" parent="WIyWlLk6GJQsqaUBKTNV-1" source="2ceo6vDL-QDBx9WR0tVc-21" target="2ceo6vDL-QDBx9WR0tVc-8">
          <mxGeometry relative="1" as="geometry" />
        </mxCell>
        <mxCell id="2ceo6vDL-QDBx9WR0tVc-21" value="crear" style="rhombus;whiteSpace=wrap;html=1;" vertex="1" parent="WIyWlLk6GJQsqaUBKTNV-1">
          <mxGeometry x="350" y="370" width="80" height="80" as="geometry" />
        </mxCell>
        <mxCell id="2ceo6vDL-QDBx9WR0tVc-23" style="edgeStyle=orthogonalEdgeStyle;rounded=0;orthogonalLoop=1;jettySize=auto;html=1;entryX=0.611;entryY=0.967;entryDx=0;entryDy=0;entryPerimeter=0;" edge="1" parent="WIyWlLk6GJQsqaUBKTNV-1" source="2ceo6vDL-QDBx9WR0tVc-21" target="2ceo6vDL-QDBx9WR0tVc-4">
          <mxGeometry relative="1" as="geometry" />
        </mxCell>
      </root>
    </mxGraphModel>
  </diagram>
</mxfile>
